<svg width="512" height="512" xmlns="http://www.w3.org/2000/svg" xml:space="preserve" enable-background="new 0 0 512 512" version="1.1">

 <g>
  <title>Layer 1</title>
  <path id="svg_3" d="m326.16125,117.76326c9.00297,6.2503 17.83844,12.22343 25.34067,19.68976c7.37314,7.33784 13.90427,15.49632 20.25022,23.8006c6.65313,8.70629 12.4234,17.95127 17.32785,27.64547c5.43216,10.73732 9.78784,22.01395 13.7741,33.3897c2.23664,6.3829 4.3639,12.81769 6.19645,19.32594c4.33917,15.41048 8.80691,30.76842 11.32361,46.65968c2.20407,13.91703 5.19442,27.78147 4.4873,41.90067c-0.75067,14.98859 -2.24231,29.79758 -9.06387,43.83081c-6.48279,13.3363 -13.52982,26.04971 -24.51355,36.10751c-11.41776,10.4552 -23.76505,19.29889 -38.35038,25.43525c-11.70794,4.92571 -23.66012,8.54464 -35.89553,11.01162c-11.27405,2.27314 -22.7432,4.29642 -34.34186,4.39499c-17.49536,0.14865 -35.01686,0.57858 -52.47937,-0.19382c-8.48354,-0.37524 -17.05663,-0.79748 -25.58988,-3.03228c-8.38777,-2.19675 -17.1212,-3.30979 -25.60249,-5.59537c-13.37784,-3.6052 -25.87755,-8.96491 -37.29385,-16.77908c-5.16902,-3.53806 -10.47943,-6.98438 -15.13843,-11.13199c-16.64462,-14.81766 -27.96098,-32.97486 -33.7366,-54.63236c-3.33476,-12.5047 -4.63174,-25.18033 -3.72229,-37.96872c0.72595,-10.20761 1.55859,-20.46402 3.68042,-30.53152c2.4208,-11.48609 4.03592,-23.22064 7.47305,-34.39447c4.5121,-14.6684 7.93078,-29.66037 13.95479,-43.93456c5.00322,-11.85539 10.4731,-23.46472 16.2081,-34.93251c3.06195,-6.12266 7.55845,-11.57924 11.75812,-17.06817c4.89684,-6.4002 10.06671,-12.60181 15.31887,-18.71715c6.10968,-7.11377 14.10166,-12.06386 21.2979,-17.92272c10.01942,-8.15738 21.62836,-13.86716 32.45885,-20.77818c13.51568,-8.62444 26.32287,-17.80776 31.76793,-34.11412c2.0872,-6.25057 8.4568,-6.69751 13.77421,-7.03826c6.57944,-0.42162 11.43759,2.6889 14.37888,9.11788c6.5878,14.39946 17.54156,24.54351 31.52807,31.88883c8.01432,4.2089 15.45044,9.51881 23.42871,14.56657z" fill="#2C2F37"/>
  <path id="svg_4" d="m120.27342,343.31c-2.57782,-13.10748 -1.62395,-25.9039 0.30887,-38.58502c3.96905,-26.04065 10.65001,-51.4283 19.54163,-76.22315c10.81604,-30.16122 26.54226,-57.04831 52.01477,-77.35238c12.36371,-9.85509 26.35928,-17.19671 39.68548,-25.56839c8.01599,-5.03573 15.82089,-10.36622 22.55165,-17.07819c1.63276,-1.62821 2.83045,-1.92838 4.56055,-0.24626c12.37769,12.03463 27.457,20.16856 42.12869,28.83902c29.21427,17.26461 50.88822,41.19267 64.64069,72.23762c14.51404,32.76413 23.48892,67.07599 28.37152,102.50144c1.3461,9.7666 1.46127,19.58947 0.02875,29.77108c-10.31375,20.12864 -26.5278,33.34714 -45.99353,43.11042c-22.41092,11.24045 -46.48395,15.36032 -71.1922,17.43383c-27.12035,2.27588 -53.81015,-0.14334 -80.16445,-6.27426c-23.91394,-5.56323 -45.36047,-16.20566 -62.90176,-33.75818c-5.39653,-5.39999 -10.30312,-11.31005 -13.58066,-18.80758z" fill="#FEFEFE"/>
  <path id="svg_5" d="m119.93047,343.40845c4.64742,2.37152 6.79506,7.24161 10.00921,11.16842c8.11122,9.90958 17.81226,17.85202 28.87776,24.1792c21.58216,12.34058 45.06504,18.04044 69.62934,20.40583c12.10338,1.16549 24.18493,2.33209 36.32281,1.75744c16.58637,-0.78522 33.02225,-2.62094 49.31977,-6.24911c14.7803,-3.29044 28.52331,-8.93299 41.5433,-16.2388c14.08984,-7.90601 25.38577,-19.13782 34.45151,-32.55213c0.92209,-1.36428 1.64819,-2.90985 3.50836,-3.83377c-2.2963,21.88486 -13.10226,39.2518 -29.99362,52.95383c-14.81088,12.01437 -32.25842,18.21414 -50.7508,21.92743c-34.02798,6.83279 -68.20631,7.04355 -102.3965,1.86502c-21.88694,-3.315 -42.88131,-9.50907 -60.52183,-23.78763c-16.39568,-13.27087 -26.80935,-30.15451 -29.99931,-51.59573z" fill="#F2E1D8"/>
  <path id="svg_6" d="m278.29617,300.02155c-3.96203,12.46972 -13.02386,18.52606 -24.93266,16.99917c-10.28438,-1.3186 -18.54637,-11.16193 -18.97051,-23.0332c-0.12341,-3.45444 -0.8341,-6.02811 -3.36079,-8.75711c-6.41356,-6.92707 -4.71341,-16.99768 3.21179,-22.43137c10.9179,-7.48553 34.7936,-7.35834 45.66356,0.24332c7.41101,5.18271 9.38828,15.10397 3.39353,21.7081c-3.23859,3.56778 -4.40845,7.02374 -4.28235,11.45257c0.03222,1.13178 -0.40229,2.2768 -0.72257,3.81852z" fill="#31343A"/>
  <path id="svg_7" d="m194.81804,277.50763c0.46269,0.48965 0.67824,0.80163 1.11656,1.29309c0.55977,0.63232 0.89708,1.08496 0.96175,1.9516c-0.02318,0.71896 -0.03601,1.15576 0.01237,1.91528c-0.0545,5.93552 -3.34935,8.72748 -8.78934,10.06882c-1.13334,0.34231 -1.92846,0.53201 -2.94601,0.93619c-3.07448,1.76852 -6.18683,2.19989 -9.76863,2.34137c-3.76003,-0.02765 -7.11932,-0.06202 -10.93523,-0.06519c-3.33488,-0.09527 -6.0952,-0.85693 -9.13246,-1.82562c-1.05429,-0.59631 -1.84782,-0.89862 -2.96629,-1.22986c-1.48215,0.04514 -2.18132,-0.73544 -3.16211,-1.62354c-1.04755,-0.79336 -1.86247,-1.38784 -2.94907,-2.12542c-0.80064,-0.69647 -1.34456,-1.23563 -2.03338,-2.03125c-1.97019,-4.6304 -1.2022,-8.49237 2.5038,-12.04291c0.86782,-0.68066 1.41316,-1.20679 2.24223,-1.82736c0.24509,-0.14212 0.65278,-0.25736 0.81952,-0.38803c2.04693,-1.57993 4.37518,-1.97354 6.85504,-2.86078c1.41699,-0.14984 2.48889,-0.2619 3.92868,-0.54584c5.71416,-1.95981 11.09575,-1.71414 16.58923,-0.8215c3.51647,0.57144 7.34203,-0.26093 10.48337,3.09732c1.79346,1.24426 3.24069,2.21362 5.012,3.25098c1.63081,0.29068 1.72872,1.35205 2.15797,2.53265z" fill="#F5835C"/>
  <path id="svg_8" d="m368.22418,288.75793c-1.10806,0.76081 -1.97564,1.28827 -3.02279,2.06238c-0.9202,0.9845 -1.86509,1.38162 -3.05414,1.96704c-1.08609,0.32483 -1.9083,0.49424 -2.96521,0.87647c-2.77274,1.64725 -5.56839,2.07974 -8.80823,2.30466c-3.41644,-0.00892 -6.43918,-0.00672 -9.91092,0.05813c-1.97,1.29428 -3.3837,0.4523 -5.16687,-0.31708c-0.77603,-0.3287 -1.19437,-0.50341 -1.95593,-0.68408c-6.552,-0.76211 -12.39743,-2.32025 -15.61316,-8.37875c-2.56217,-4.82709 -0.733,-9.64109 4.65991,-12.45551c0.61221,-0.48538 0.90546,-0.72226 1.39227,-1.16586c9.31507,-6.46957 19.29853,-5.79742 29.85413,-3.70191c1.14221,0.32343 1.87183,0.5066 2.97961,0.6875c3.99436,0.53336 7.36698,1.58567 10.13019,4.72663c0.60105,0.58587 0.94617,0.91888 1.49182,1.38391c1.45639,0.20224 1.58728,1.20313 1.91468,2.45435c0.18502,2.23904 0.29031,4.13119 0.42361,6.37817c0.05002,1.91455 -1.31058,2.55569 -2.34897,3.80395z" fill="#F5825C"/>
  <path id="svg_9" d="m328.29999,267.36914c-12.72852,-1.62521 -20.35419,-10.35153 -18.28736,-20.82191c1.64539,-8.3353 7.87354,-13.9646 16.02863,-14.4874c7.92621,-0.5081 15.5137,4.42534 17.87418,11.62183c2.65417,8.09217 -0.08698,15.53794 -7.77826,20.96153c-0.35599,0.74924 -0.53492,1.21094 -0.96122,1.94983c-1.59466,0.95318 -2.96279,1.54861 -4.85424,1.68152c-0.86463,-0.16294 -1.31494,-0.37745 -2.02173,-0.9054z" fill="#31353C"/>
  <path id="svg_10" d="m181.26172,266.5163c-15.00006,-6.17142 -15.06171,-22.64931 -6.36023,-30.2094c5.56435,-4.83444 14.21348,-5.65732 20.47095,-2.06975c6.32038,3.62368 9.67714,10.84841 8.45955,18.20738c-1.2269,7.41503 -6.9126,13.01461 -14.57253,14.32027c-0.81557,0.13898 -1.65427,0.1423 -2.8826,0.29624c-1.97003,1.24755 -3.47342,1.42153 -5.11514,-0.54474z" fill="#30343B"/>
  <path id="svg_11" d="m322.33197,273.9502c-7.30106,7.31179 -5.93115,14.4982 3.98859,18.61767c1.97973,0.82211 4.09829,1.31003 6.41455,2.20184c-3.21903,1.37589 -12.15161,-1.67993 -14.6351,-4.8464c-3.08667,-3.93558 -3.38974,-9.46103 -0.8133,-13.75574c1.08615,-1.81058 2.83087,-2.07428 5.04526,-2.21737z" fill="#FAF1E8"/>
  <path id="svg_12" d="m327.98065,267.47992c0.46588,-0.4368 0.90738,-0.53021 1.67951,-0.53635c2.16125,1.75559 3.47543,0.03903 5.10772,-0.90298c0.19446,-0.64728 0.37934,-0.90329 0.95606,-1.07984c1.51373,2.3743 3.79233,2.02243 5.92392,2.04368c4.10928,0.04098 8.28854,-0.38639 12.22583,2.16397c-9.81031,-0.40732 -19.73825,-0.633 -29.52564,3.6502c-0.05944,-2.47204 3.68,-2.21399 3.6326,-5.33868z" fill="#FAF1E8"/>
  <path id="svg_13" d="m180.86877,266.52387c1.5642,-0.10581 2.99523,0.12887 4.767,0.4942c0.09058,1.92031 1.57398,2.93472 2.2876,4.65298c-8.47995,-2.55688 -17.24579,-3.22186 -26.57683,-2.30411c4.14019,-3.72564 9.33461,-2.30667 14.36238,-1.91006c1.75699,0.13858 3.53688,1.27014 5.15985,-0.93301z" fill="#F9F0E6"/>
  <path id="svg_14" d="m188.1958,292.93012c2.99452,-2.70704 7.20561,-4.6175 8.58013,-9.66138c1.90347,5.4577 -1.28728,9.2673 -8.58013,9.66138z" fill="#F9F0E6"/>
  <path id="svg_15" d="m366.94415,274.64319c-3.12228,-1.14728 -6.29934,-2.64182 -9.71478,-4.38544c4.28705,-1.65039 7.36099,0.29932 9.71478,4.38544z" fill="#FAF1E8"/>
  <path id="svg_16" d="m175.2914,296.26257c2.75416,-0.9595 5.7957,-1.67712 9.24839,-2.38513c-1.98759,3.47919 -5.49278,2.987 -9.24839,2.38513z" fill="#F9F0E6"/>
  <path id="svg_17" d="m350.254,296.20471c2.3136,-1.46216 5.09241,-1.93725 8.28934,-2.34295c-1.68088,3.23239 -4.8696,2.84127 -8.28934,2.34295z" fill="#FAF1E8"/>
  <path id="svg_18" d="m155.15387,294.19611c2.69723,0.21377 5.47205,0.79446 8.55295,1.57953c-2.87578,1.31069 -5.79665,0.79949 -8.55295,-1.57953z" fill="#F9F0E6"/>
  <path id="svg_19" d="m156.75348,269.75317c-1.51836,1.92661 -3.90514,2.21979 -6.43897,2.97919c0.97805,-2.82516 3.57993,-3.02307 6.43897,-2.97919z" fill="#F9F0E6"/>
  <path id="svg_20" d="m335.0459,295.85236c1.38882,-0.78635 2.82232,-0.29395 4.61883,0.11026c-1.23318,3.21057 -2.86596,2.20474 -4.61883,-0.11026z" fill="#FAF1E8"/>
  <path id="svg_21" d="m149.02344,291.38074c0.86976,0.11053 1.78694,0.53088 2.86325,1.21744c-1.63092,1.89837 -2.20741,0.45489 -2.86325,-1.21744z" fill="#F9F0E6"/>
  <path id="svg_22" d="m368.35107,288.93347c-0.16015,-1.34674 0.77179,-2.30688 1.96515,-3.45309c0.71408,1.57516 0.17728,2.81204 -1.96515,3.45309z" fill="#FAF1E8"/>
  <path id="svg_23" d="m370.4129,278.66351c-0.73489,-0.41183 -1.28616,-1.08282 -1.90747,-2.08194c1.46341,-0.42807 2.59934,-0.1286 1.90747,2.08194z" fill="#FAF1E8"/>
  <path id="svg_24" d="m195.06583,277.37042c-0.60772,-0.39395 -1.21477,-1.10278 -1.95175,-2.06952c2.544,-1.63556 1.51805,0.81501 1.95175,2.06952z" fill="#F9F0E6"/>
  <path id="svg_25" d="m362.2334,292.95911c0.2189,-0.98944 1.07178,-1.57731 2.46933,-1.87558c0.08276,1.35614 -0.81488,1.88391 -2.46933,1.87558z" fill="#FAF1E8"/>
  <path id="svg_26" d="m148.90037,273.1142c0.09676,0.86102 -0.49236,1.3721 -1.62632,1.67254c-0.1122,-0.86737 0.34715,-1.50451 1.62632,-1.67254z" fill="#F9F0E6"/>
  <path id="svg_27" d="m144.08694,287.2059c0.85262,-0.15933 1.42774,0.38086 1.84253,1.49051c-0.85504,0.18198 -1.56422,-0.1991 -1.84253,-1.49051z" fill="#F9F0E6"/>
  <path id="svg_28" d="m197.08658,280.86499c-0.4587,-0.32458 -0.7168,-0.81866 -0.95206,-1.59872c0.94405,-0.07297 1.75713,0.2113 0.95206,1.59872z" fill="#F9F0E6"/>
  <path id="svg_29" d="m262.69818,305.8934c-4.64865,2.41489 -8.84483,2.65082 -12.64366,-0.89374c-2.80826,-2.62027 -2.60718,-5.05566 0.54303,-7.33078c3.28175,-2.37011 6.90251,-2.22927 10.40092,-1.1163c5.27106,1.67694 5.86994,4.89798 1.69971,9.34082z" fill="#DD6866"/>
  <path id="svg_30" d="m242.5145,279.4502c-2.37503,-2.77485 -2.14028,-5.33341 0.30152,-7.17573c2.13506,-1.61086 4.77326,-1.33609 6.88294,0.40839c1.92046,1.58798 2.11494,3.94693 0.79033,5.78855c-1.96976,2.73855 -4.70902,3.46307 -7.97479,0.97879z" fill="#EBEDEE"/>
  <path id="svg_31" d="m269.47717,280.73285c-3.13208,0.50574 -5.37252,-0.29297 -6.38949,-3.00784c-0.65344,-1.74433 -0.60923,-3.71338 0.95447,-5.03409c1.92413,-1.62512 4.19125,-1.82022 6.46752,-0.66287c3.49747,1.77822 3.22608,5.2265 -1.0325,8.7048z" fill="#EBEDEE"/>
  <path id="svg_32" d="m334.55933,265.7832c-0.4722,2.4585 -1.64295,4.11713 -4.4751,1.56629c1.30771,-0.72522 2.70892,-1.13181 4.4751,-1.56629z" fill="#FEFEFE"/>
 </g>
</svg>